<svg width="160" height="160" viewBox="0 0 160 160" fill="none" xmlns="http://www.w3.org/2000/svg">
<rect width="160" height="160" rx="43" fill="white"/>
<path d="M135.226 43.747C136.144 44.7711 136.817 45.8554 137.246 47L140 45.1928C139.388 43.1446 138.409 41.3072 137.062 39.6807C135.777 38.0542 134.308 36.6687 132.656 35.5241C131.003 34.3795 129.228 33.506 127.331 32.9036C125.495 32.3012 123.72 32 122.007 32C118.824 32 116.437 32.8133 114.846 34.4398C113.255 36.006 112.306 37.8434 112 39.9518C112.061 40.6145 112.367 41.3072 112.918 42.0301C113.408 42.6928 114.081 43.2952 114.938 43.8373C115.795 44.3795 116.774 44.8012 117.875 45.1024C118.977 45.3434 120.109 45.3133 121.272 45.012C121.578 44.1084 122.068 43.0542 122.741 41.8494C123.414 40.6446 124.087 39.6807 124.761 38.9578C126.046 38.8373 127.331 38.988 128.616 39.4096C129.963 39.7711 131.187 40.3434 132.289 41.1265C133.39 41.8494 134.369 42.7229 135.226 43.747Z" fill="#0098E9"/>
<path d="M60.6893 80.02C58.7045 80.02 57.1167 79.2341 55.9259 77.6624C54.7351 76.0906 54.1396 74.0638 54.1396 71.5821C54.1396 69.0176 54.7351 66.9495 55.9259 65.3777C57.1167 63.8059 58.7045 63.02 60.6893 63.02C62.6078 63.02 64.1625 63.8059 65.3534 65.3777C66.5442 66.9495 67.1396 69.0176 67.1396 71.5821C67.1396 74.0638 66.5442 76.0906 65.3534 77.6624C64.1625 79.2341 62.6078 80.02 60.6893 80.02Z" fill="#0098E9"/>
<path d="M121.689 80.02C119.705 80.02 118.117 79.2341 116.926 77.6624C115.735 76.0906 115.14 74.0638 115.14 71.5821C115.14 69.0176 115.735 66.9495 116.926 65.3777C118.117 63.8059 119.705 63.02 121.689 63.02C123.608 63.02 125.163 63.8059 126.353 65.3777C127.544 66.9495 128.14 69.0176 128.14 71.5821C128.14 74.0638 127.544 76.0906 126.353 77.6624C125.163 79.2341 123.608 80.02 121.689 80.02Z" fill="#0098E9"/>
<path d="M17.1396 79.52C17.1396 72.6968 18.0561 66.3985 19.8889 60.625C21.8089 54.764 24.5145 49.7341 28.0056 45.5352C31.5839 41.2488 35.9477 37.9247 41.0971 35.5628C46.2464 33.201 52.0939 32.02 58.6397 32.02C65.1854 32.02 71.0329 33.201 76.1822 35.5628C81.3316 37.9247 85.6517 41.2488 89.1428 45.5352C92.7212 49.7341 95.4267 54.764 97.2595 60.625C99.1796 66.3985 100.14 72.6968 100.14 79.52C100.14 86.3432 99.1796 92.6853 97.2595 98.5463C95.4267 104.32 92.7212 109.35 89.1428 113.636C85.6517 117.835 81.3316 121.115 76.1822 123.477C71.0329 125.839 65.1854 127.02 58.6397 127.02C52.0939 127.02 46.2464 125.839 41.0971 123.477C35.9477 121.115 31.5839 117.835 28.0056 113.636C24.5145 109.35 21.8089 104.32 19.8889 98.5463C18.0561 92.6853 17.1396 86.3432 17.1396 79.52ZM31.1475 79.52C31.1475 85.1185 31.7148 90.4109 32.8494 95.3971C34.0713 100.296 35.8605 104.582 38.2169 108.256C40.5734 111.93 43.5408 114.861 47.1192 117.048C50.6975 119.147 54.9304 120.197 59.8179 120.197C64.269 120.197 68.1528 119.147 71.4693 117.048C74.7858 114.861 77.4914 111.93 79.586 108.256C81.7679 104.582 83.3825 100.296 84.4299 95.3971C85.5645 90.4109 86.1318 85.1185 86.1318 79.52C86.1318 73.9215 85.5645 68.6729 84.4299 63.7742C83.2953 58.788 81.5497 54.4579 79.1933 50.7838C76.8368 47.1098 73.8694 44.2231 70.2911 42.1236C66.7127 39.9367 62.4798 38.8432 57.5923 38.8432C52.7921 38.8432 48.6901 39.9367 45.2863 42.1236C41.9698 44.2231 39.2643 47.1098 37.1696 50.7838C35.075 54.4579 33.5476 58.788 32.5876 63.7742C31.6276 68.6729 31.1475 73.9215 31.1475 79.52Z" fill="#0098E9"/>
<path d="M119.444 116.754C123.655 114.926 127.811 112.612 131.911 109.812L131.348 107.927C128.494 108.559 125.71 108.934 122.997 109.053C120.283 109.172 117.632 109.121 115.044 108.901C110.059 108.476 105.215 107.539 100.511 106.088C95.8068 104.638 91.1581 103.105 86.5646 101.489C81.9712 99.8731 77.3703 98.3441 72.7621 96.902C68.2497 95.468 63.7077 93.8864 58.8039 94.1387C51.1584 94.894 49.5543 96.6671 49.5543 96.6671L48.4297 99.4992C55.819 98.2623 60.1443 100.507 65.4381 102.97C70.8277 105.441 75.8894 107.796 80.6228 110.037C85.3562 112.277 89.8242 114.232 94.0268 115.902C98.2295 117.572 102.296 118.574 106.226 118.909C110.82 119.388 115.226 118.669 119.444 116.754Z" fill="#0098E9"/>
</svg>
