
<svg width="80" height="64" viewBox="0 0 214 170" fill="none" xmlns="http://www.w3.org/2000/svg" class="text-gray-900 dark:text-white">
    <path fill-rule="evenodd" clip-rule="evenodd" d="M68.3984 0.613498C46.9164 2.0825 38.0534 3.4415 32.3454 6.1415C24.0604 10.0615 17.0214 19.0715 15.3704 27.8705C14.7084 31.4015 14.4924 31.5735 10.7104 31.5735C4.46844 31.5735 1.28944 35.4055 0.364438 44.0485C-0.0375623 47.8025 -0.119562 54.4735 0.181438 58.8725C0.800438 67.9095 2.67744 71.5025 7.55244 72.9805L10.5434 73.8875L11.7184 89.9805C13.8244 118.828 16.2374 127.678 24.1594 135.6C31.6474 143.087 37.1024 144.746 60.1904 146.564C78.8684 148.034 118.338 148.983 126.084 148.148C131.363 147.579 133.315 146.883 135.355 144.844C139.852 140.346 139.935 134.521 135.565 130.15C133.355 127.94 132.727 127.885 101.356 127.213C83.7794 126.836 63.4774 125.944 56.2414 125.228C42.7304 123.891 39.0734 122.636 36.9134 118.6C32.6544 110.642 30.9544 62.0065 34.2244 41.6485C35.9524 30.8825 37.3254 27.6245 41.1624 25.1725C48.7254 20.3415 134.667 19.1865 166.38 23.4895C176.871 24.9135 178.494 28.4875 180.942 55.5615C182.446 72.2065 183.782 73.5735 198.54 73.5735C206.614 73.5735 207.202 73.4235 209.975 70.6505C213.051 67.5745 213.301 66.2465 213.099 54.0735C213.045 50.7735 212.977 45.6765 212.949 42.7465C212.906 38.2285 212.454 36.9755 209.975 34.4965C207.727 32.2485 206.136 31.5735 203.086 31.5735C199.304 31.5735 199.088 31.4015 198.426 27.8705C196.787 19.1325 189.796 10.1385 181.483 6.0715C177.298 4.0235 173.254 3.2045 161.323 1.9895C143.501 0.173498 87.0564 -0.661502 68.3984 0.613498ZM70.6554 43.5235C60.8944 44.3415 57.9084 46.3215 56.1134 53.1705C52.9784 65.1365 53.7304 91.4795 57.4094 98.5955C58.1464 100.019 60.0194 101.766 61.5734 102.479C70.0854 106.381 143.537 106.428 152.078 102.537C155.805 100.839 157.582 96.9885 158.947 87.6515C160.366 77.9475 159.696 59.3805 157.685 52.6695C155.747 46.1995 152.725 44.4075 142.197 43.4865C131.755 42.5715 81.7084 42.5985 70.6554 43.5235ZM96.0984 63.3235C96.2734 63.7355 96.2704 68.6855 96.0914 74.3235L95.7654 84.5735H85.3324H74.8984V73.5735V62.5735H85.3394C91.0824 62.5735 95.9234 62.9115 96.0984 63.3235ZM138.898 73.5735V84.5735H127.898H116.898V74.2405C116.898 68.5565 117.198 63.6065 117.565 63.2405C117.931 62.8735 122.881 62.5735 128.565 62.5735H138.898V73.5735ZM180.435 85.5145C180.115 86.0315 178.74 89.8675 177.378 94.0385C171.878 110.885 166.435 118.291 156.011 123.103C152.649 124.655 149.898 126.516 149.898 127.239C149.898 127.962 152.711 129.834 156.148 131.398C166.467 136.093 171.892 143.581 177.487 160.855C179.398 166.755 180.78 169.544 181.699 169.355C182.451 169.2 184.304 165.249 185.816 160.574C191.332 143.521 196.463 136.315 206.499 131.525C210.018 129.845 212.898 127.844 212.898 127.078C212.898 126.312 210.199 124.474 206.901 122.994C196.688 118.41 191.061 110.503 185.298 92.6355C182.826 84.9715 181.747 83.3915 180.435 85.5145Z" fill="currentColor"></path>
</svg>
